# xmcd
#
# Track frame offsets: 
#        150
#        41760
#        73118
#        109632
#        130232
#        177698
#        197088
#        236020
#        264572
#        301559
#
# Disc length: 4450 seconds
#
# Revision: 1
# Processed by: cddbd v1.5.2PL0 Copyright (c) Steve Scherf et al.
# Submitted via: ExactAudioCopy v1.3
#
DISCID=8d11600a
DTITLE=The Hoodangers - Stor Fisk Lille Fisk [CD1]
DYEAR=2008
DGENRE=Jazz
TTITLE0=When I Grow Too Old To Dream
TTITLE1=Burden
TTITLE2=Careless Love
TTITLE3=Saratoga Shout
TTITLE4=St. Vincent's Hospital
TTITLE5=Fidgety Feet
TTITLE6=Let's Burn Something
TTITLE7=Khe Sanh
TTITLE8=Just A Closer Walk With Thee
TTITLE9=Black Bottom Stomp
EXTD=YEAR: 2008
EXTT0=
EXTT1=
EXTT2=
EXTT3=
EXTT4=
EXTT5=
EXTT6=
EXTT7=
EXTT8=
EXTT9=
PLAYORDER=
